<svg viewBox="0 0 19 19" fill="none" xmlns="http://www.w3.org/2000/svg">
  <path fill="var(--icon-base, currentColor)" d="M13.75 0H4.58333C2.05333 0 0 2.05333 0 4.58333V13.75C0 16.28 2.05333 18.3333 4.58333 18.3333H13.75C16.28 18.3333 18.3333 16.28 18.3333 13.75V4.58333C18.3333 2.05333 16.28 0 13.75 0ZM9.16667 13.75C6.63667 13.75 4.58333 11.6967 4.58333 9.16667C4.58333 6.63667 6.63667 4.58333 9.16667 4.58333C11.6967 4.58333 13.75 6.63667 13.75 9.16667C13.75 11.6967 11.6967 13.75 9.16667 13.75ZM14.0708 5.15167C13.5667 5.15167 13.1542 4.73917 13.1542 4.235C13.1542 3.73083 13.5667 3.31833 14.0708 3.31833C14.575 3.31833 14.9875 3.73083 14.9875 4.235C14.9875 4.73917 14.575 5.15167 14.0708 5.15167Z"/>
</svg>
