<svg viewBox="0 0 22 22" xmlns="http://www.w3.org/2000/svg">
  <path fill="var(--icon-base, currentColor)" d="M19.7998 19.8001V13.3541C19.7998 10.1861 19.1178 7.76611 15.4218 7.76611C13.6398 7.76611 12.4518 8.73411 11.9678 9.65811H11.9238V8.05211H8.42578V19.8001H12.0778V13.9701C12.0778 12.4301 12.3638 10.9561 14.2558 10.9561C16.1258 10.9561 16.1478 12.6941 16.1478 14.0581V19.7781H19.7998V19.8001Z"/>
  <path fill="var(--icon-base, currentColor)" d="M2.48438 8.05225H6.13637V19.8002H2.48438V8.05225Z"/>
  <path fill="var(--icon-base, currentColor)" d="M4.31122 2.2002C3.14522 2.2002 2.19922 3.1462 2.19922 4.3122C2.19922 5.4782 3.14522 6.4462 4.31122 6.4462C5.47722 6.4462 6.42322 5.4782 6.42322 4.3122C6.42322 3.1462 5.47722 2.2002 4.31122 2.2002Z"/>
</svg>
